ply
format ascii 1.0
comment ppf_version 1.0
comment plant_id arabidopsis_042_t2
comment subject_id arabidopsis_042
comment timepoint_index 2
comment species Arabidopsis_thaliana
comment sensor_type structured_light
comment acquisition_date 2024-03-15T14:30:00Z
comment dataset_name PPF_Example_Dataset
comment growth_stage BBCH_18
comment cultivar Col-0
element vertex 15
property float x
property float y
property float z
property uchar red
property uchar green
property uchar blue
property float intensity
property int semantic_label
property int instance_id
end_header
-0.5 0.1 -15.0 139 69 19 0.82 2 0
-0.3 -0.1 -10.0 139 69 19 0.79 2 0
0.0 0.0 -5.0 139 69 19 0.81 2 0
0.2 0.1 0.0 139 69 19 0.80 2 0
0.1 -0.1 5.0 139 69 19 0.78 2 0
8.5 3.2 8.0 0 180 0 0.65 1 1
12.0 5.1 10.5 0 200 0 0.71 1 1
15.5 7.8 12.0 0 190 0 0.68 1 1
-7.8 -4.5 7.5 0 170 0 0.63 1 2
-11.2 -6.2 9.8 0 185 0 0.66 1 2
-14.5 -8.0 11.5 0 195 0 0.70 1 2
2.5 -8.0 6.5 0 160 0 0.58 1 3
4.0 -12.5 8.0 0 175 0 0.61 1 3
5.5 -16.0 9.5 0 188 0 0.64 1 3
0.0 0.0 10.0 255 255 0 0.45 4 1